<svg viewBox="0 0 400 300" xmlns="http://www.w3.org/2000/svg">
  <defs>
    <linearGradient id="deliveryGradient" x1="0%" y1="0%" x2="100%" y2="100%">
      <stop offset="0%" style="stop-color:#EF4444;stop-opacity:1" />
      <stop offset="100%" style="stop-color:#F97316;stop-opacity:1" />
    </linearGradient>
  </defs>

  <!-- Background -->
  <rect width="400" height="300" fill="url(#deliveryGradient)" />

  <!-- Delivery car -->
  <rect x="120" y="180" width="120" height="60" rx="8" fill="#FFFFFF" />
  <rect x="130" y="190" width="100" height="40" rx="6" fill="#F3F4F6" />

  <!-- Car windows -->
  <rect x="135" y="195" width="35" height="25" rx="3" fill="#93C5FD" />
  <rect x="175" y="195" width="50" height="25" rx="3" fill="#93C5FD" />

  <!-- Car wheels -->
  <circle cx="145" cy="250" r="15" fill="#374151" />
  <circle cx="145" cy="250" r="8" fill="#6B7280" />
  <circle cx="215" cy="250" r="15" fill="#374151" />
  <circle cx="215" cy="250" r="8" fill="#6B7280" />

  <!-- Delivery box on top -->
  <rect x="180" y="160" width="40" height="25" rx="4" fill="#10B981" />
  <rect x="185" y="165" width="30" height="15" rx="2" fill="#FFFFFF" />
  <text x="200" y="175" text-anchor="middle" fill="#10B981" font-size="8" font-weight="bold">FOOD</text>

  <!-- Speed lines -->
  <line x1="80" y1="200" x2="110" y2="200" stroke="#FFFFFF" stroke-width="3" opacity="0.8" />
  <line x1="85" y1="210" x2="105" y2="210" stroke="#FFFFFF" stroke-width="2" opacity="0.6" />
  <line x1="90" y1="220" x2="110" y2="220" stroke="#FFFFFF" stroke-width="2" opacity="0.4" />

  <!-- Phone with app -->
  <rect x="280" y="120" width="60" height="100" rx="8" fill="#374151" />
  <rect x="285" y="130" width="50" height="80" rx="4" fill="#111827" />

  <!-- App interface -->
  <rect x="290" y="135" width="40" height="15" rx="2" fill="#EF4444" />
  <text x="310" y="145" text-anchor="middle" fill="white" font-size="6" font-weight="bold">DoorDash</text>

  <!-- Order details -->
  <rect x="290" y="155" width="35" height="3" rx="1" fill="#E5E7EB" />
  <rect x="290" y="162" width="30" height="3" rx="1" fill="#E5E7EB" />
  <rect x="290" y="169" width="32" height="3" rx="1" fill="#E5E7EB" />

  <!-- Accept button -->
  <rect x="290" y="180" width="40" height="12" rx="6" fill="#10B981" />
  <text x="310" y="188" text-anchor="middle" fill="white" font-size="6" font-weight="bold">ACCEPT</text>

  <!-- Money symbols -->
  <circle cx="50" cy="80" r="20" fill="#FCD34D" opacity="0.9" />
  <text x="50" y="87" text-anchor="middle" fill="#92400E" font-size="16" font-weight="bold">$</text>

  <circle cx="350" cy="60" r="15" fill="#10B981" opacity="0.8" />
  <text x="350" y="66" text-anchor="middle" fill="white" font-size="12" font-weight="bold">$</text>

  <!-- Restaurant -->
  <rect x="30" y="140" width="60" height="40" rx="6" fill="#FFFFFF" />
  <rect x="35" y="145" width="50" height="30" rx="4" fill="#F3F4F6" />
  <rect x="40" y="150" width="15" height="20" rx="2" fill="#93C5FD" />
  <rect x="60" y="150" width="15" height="20" rx="2" fill="#93C5FD" />

  <!-- Restaurant sign -->
  <rect x="45" y="125" width="20" height="15" rx="2" fill="#EF4444" />
  <text x="55" y="135" text-anchor="middle" fill="white" font-size="6" font-weight="bold">FOOD</text>

  <!-- Delivery route -->
  <path d="M 90 160 Q 150 100 280 140" stroke="#FBBF24" stroke-width="3" fill="none" stroke-dasharray="8,4" />
  <circle cx="280" cy="140" r="4" fill="#FBBF24" />

  <!-- Clock (time) -->
  <circle cx="320" cy="250" r="25" fill="#FFFFFF" opacity="0.9" />
  <circle cx="320" cy="250" r="20" fill="none" stroke="#374151" stroke-width="2" />
  <line x1="320" y1="250" x2="320" y2="235" stroke="#374151" stroke-width="2" />
  <line x1="320" y1="250" x2="330" y2="250" stroke="#374151" stroke-width="2" />
  <text x="320" y="285" text-anchor="middle" fill="#FFFFFF" font-size="10">30 MIN</text>

  <!-- Tips indicator -->
  <rect x="250" y="40" width="80" height="30" rx="15" fill="#FFFFFF" opacity="0.9" />
  <text x="290" y="52" text-anchor="middle" fill="#EF4444" font-size="10" font-weight="bold">TIPS</text>
  <text x="290" y="64" text-anchor="middle" fill="#10B981" font-size="12" font-weight="bold">$5-15</text>
</svg>