<svg viewBox="0 0 400 300" xmlns="http://www.w3.org/2000/svg">
  <defs>
    <linearGradient id="tutoringGradient" x1="0%" y1="0%" x2="100%" y2="100%">
      <stop offset="0%" style="stop-color:#3B82F6;stop-opacity:1" />
      <stop offset="100%" style="stop-color:#1D4ED8;stop-opacity:1" />
    </linearGradient>
  </defs>

  <!-- Background -->
  <rect width="400" height="300" fill="url(#tutoringGradient)" />

  <!-- Computer screen -->
  <rect x="100" y="80" width="200" height="140" rx="12" fill="#374151" />
  <rect x="110" y="90" width="180" height="120" rx="8" fill="#111827" />

  <!-- Video call interface -->
  <rect x="120" y="100" width="80" height="60" rx="6" fill="#FBBF24" />
  <circle cx="160" cy="120" r="15" fill="#FFFFFF" />
  <rect x="155" y="135" width="10" height="15" rx="5" fill="#FFFFFF" />

  <!-- Student on screen -->
  <rect x="210" y="100" width="80" height="60" rx="6" fill="#10B981" />
  <circle cx="250" cy="120" r="12" fill="#FFFFFF" />
  <rect x="245" y="135" width="10" height="15" rx="5" fill="#FFFFFF" />

  <!-- Chat/lesson content -->
  <rect x="120" y="170" width="160" height="30" rx="4" fill="#1F2937" />
  <rect x="125" y="175" width="60" height="4" rx="2" fill="#6366F1" />
  <rect x="125" y="182" width="80" height="3" rx="1" fill="#E5E7EB" />
  <rect x="125" y="188" width="70" height="3" rx="1" fill="#E5E7EB" />
  <rect x="125" y="194" width="90" height="3" rx="1" fill="#E5E7EB" />

  <!-- Computer base -->
  <rect x="90" y="220" width="220" height="15" rx="8" fill="#374151" />

  <!-- Books -->
  <rect x="50" y="180" width="30" height="40" rx="3" fill="#DC2626" />
  <rect x="52" y="182" width="26" height="36" rx="2" fill="#EF4444" />
  <rect x="55" y="185" width="20" height="3" rx="1" fill="#FFFFFF" />
  <rect x="55" y="192" width="15" height="2" rx="1" fill="#FFFFFF" />

  <rect x="45" y="185" width="30" height="40" rx="3" fill="#10B981" />
  <rect x="47" y="187" width="26" height="36" rx="2" fill="#34D399" />
  <rect x="50" y="190" width="20" height="3" rx="1" fill="#FFFFFF" />
  <rect x="50" y="197" width="18" height="2" rx="1" fill="#FFFFFF" />

  <!-- Graduation cap -->
  <rect x="320" y="120" width="60" height="8" rx="4" fill="#374151" />
  <rect x="340" y="110" width="20" height="20" rx="4" fill="#374151" />
  <rect x="355" y="105" width="3" height="15" rx="1" fill="#FBBF24" />
  <rect x="358" y="105" width="8" height="3" rx="1" fill="#FBBF24" />

  <!-- Mathematical formulas -->
  <text x="330" y="60" fill="#FFFFFF" font-size="14" font-family="serif">E=mc²</text>
  <text x="60" y="70" fill="#FFFFFF" font-size="12" font-family="serif">∫f(x)dx</text>
  <text x="320" y="200" fill="#FFFFFF" font-size="10" font-family="serif">√(a²+b²)</text>

  <!-- Globe (online/global) -->
  <circle cx="350" cy="180" r="25" fill="#FFFFFF" opacity="0.9" />
  <circle cx="350" cy="180" r="20" fill="none" stroke="#3B82F6" stroke-width="2" />
  <path d="M 330 180 Q 350 160 370 180" stroke="#3B82F6" stroke-width="2" fill="none" />
  <path d="M 330 180 Q 350 200 370 180" stroke="#3B82F6" stroke-width="2" fill="none" />
  <line x1="330" y1="180" x2="370" y2="180" stroke="#3B82F6" stroke-width="2" />

  <!-- Clock (scheduling) -->
  <circle cx="50" cy="120" r="20" fill="#FFFFFF" opacity="0.9" />
  <circle cx="50" cy="120" r="15" fill="none" stroke="#374151" stroke-width="2" />
  <line x1="50" y1="120" x2="50" y2="110" stroke="#374151" stroke-width="2" />
  <line x1="50" y1="120" x2="58" y2="120" stroke="#374151" stroke-width="2" />

  <!-- Money symbols -->
  <circle cx="80" cy="50" r="18" fill="#10B981" opacity="0.9" />
  <text x="80" y="57" text-anchor="middle" fill="white" font-size="14" font-weight="bold">$</text>

  <circle cx="320" cy="50" r="15" fill="#10B981" opacity="0.8" />
  <text x="320" y="56" text-anchor="middle" fill="white" font-size="12" font-weight="bold">$</text>

  <!-- Whiteboard/teaching tools -->
  <rect x="30" y="240" width="80" height="50" rx="6" fill="#FFFFFF" />
  <rect x="35" y="245" width="70" height="40" rx="4" fill="#F3F4F6" />

  <!-- Math on whiteboard -->
  <text x="70" y="260" text-anchor="middle" fill="#374151" font-size="10" font-family="serif">2x + 5 = 15</text>
  <text x="70" y="275" text-anchor="middle" fill="#374151" font-size="10" font-family="serif">x = 5</text>

  <!-- Pen/marker -->
  <rect x="120" y="250" width="3" height="30" rx="1" fill="#DC2626" />
  <rect x="119" y="248" width="5" height="5" rx="2" fill="#374151" />

  <!-- Student progress chart -->
  <rect x="280" y="240" width="100" height="50" rx="6" fill="#FFFFFF" opacity="0.9" />
  <rect x="285" y="245" width="90" height="40" rx="4" fill="#F3F4F6" />

  <!-- Progress bars -->
  <rect x="290" y="250" width="80" height="4" rx="2" fill="#E5E7EB" />
  <rect x="290" y="250" width="60" height="4" rx="2" fill="#10B981" />

  <rect x="290" y="258" width="80" height="4" rx="2" fill="#E5E7EB" />
  <rect x="290" y="258" width="45" height="4" rx="2" fill="#3B82F6" />

  <rect x="290" y="266" width="80" height="4" rx="2" fill="#E5E7EB" />
  <rect x="290" y="266" width="70" height="4" rx="2" fill="#F59E0B" />

  <text x="330" y="280" text-anchor="middle" fill="#374151" font-size="8">Progress</text>

  <!-- WiFi signal -->
  <path d="M 200 50 Q 190 40 180 50" stroke="#FFFFFF" stroke-width="2" fill="none" opacity="0.6" />
  <path d="M 200 50 Q 195 45 190 50" stroke="#FFFFFF" stroke-width="2" fill="none" opacity="0.8" />
  <path d="M 200 50 Q 197 47 194 50" stroke="#FFFFFF" stroke-width="2" fill="none" />
  <circle cx="200" cy="52" r="2" fill="#FFFFFF" />

  <!-- Star ratings -->
  <g transform="translate(150, 250)">
    <path d="M0 0 L2 4 L6 4 L3 7 L4 11 L0 9 L-4 11 L-3 7 L-6 4 L-2 4 Z" fill="#FBBF24" />
    <path d="M12 0 L14 4 L18 4 L15 7 L16 11 L12 9 L8 11 L9 7 L6 4 L10 4 Z" fill="#FBBF24" />
    <path d="M24 0 L26 4 L30 4 L27 7 L28 11 L24 9 L20 11 L21 7 L18 4 L22 4 Z" fill="#FBBF24" />
    <path d="M36 0 L38 4 L42 4 L39 7 L40 11 L36 9 L32 11 L33 7 L30 4 L34 4 Z" fill="#FBBF24" />
    <path d="M48 0 L50 4 L54 4 L51 7 L52 11 L48 9 L44 11 L45 7 L42 4 L46 4 Z" fill="#FBBF24" />
  </g>

  <!-- Title -->
  <text x="200" y="25" text-anchor="middle" fill="#FFFFFF" font-size="18" font-weight="bold">Online Tutoring</text>
</svg>