<svg xmlns="http://www.w3.org/2000/svg" viewBox="0 0 800 600"
  style="background: linear-gradient(135deg, #065f46 0%, #10b981 50%, #6ee7b7 100%);">
  <defs>
    <linearGradient id="houseGradient" x1="0%" y1="0%" x2="100%" y2="100%">
      <stop offset="0%" style="stop-color:#7c2d12;stop-opacity:1" />
      <stop offset="100%" style="stop-color:#dc2626;stop-opacity:1" />
    </linearGradient>
    <linearGradient id="moneyGradient" x1="0%" y1="0%" x2="100%" y2="100%">
      <stop offset="0%" style="stop-color:#fbbf24;stop-opacity:1" />
      <stop offset="100%" style="stop-color:#f59e0b;stop-opacity:1" />
    </linearGradient>
  </defs>

  <!-- Background elements -->
  <circle cx="100" cy="100" r="60" fill="rgba(255,255,255,0.1)" />
  <circle cx="700" cy="500" r="80" fill="rgba(255,255,255,0.08)" />

  <!-- Main house -->
  <g transform="translate(200, 150)">
    <!-- House base -->
    <rect x="0" y="100" width="200" height="150" fill="#8b4513" stroke="#654321" stroke-width="3" />

    <!-- Roof -->
    <path d="M-20 100 L100 20 L220 100 Z" fill="url(#houseGradient)" />

    <!-- Windows -->
    <rect x="30" y="130" width="40" height="40" fill="#87ceeb" stroke="#4682b4" stroke-width="2" />
    <rect x="130" y="130" width="40" height="40" fill="#87ceeb" stroke="#4682b4" stroke-width="2" />
    <line x1="50" y1="130" x2="50" y2="170" stroke="#4682b4" stroke-width="2" />
    <line x1="30" y1="150" x2="70" y2="150" stroke="#4682b4" stroke-width="2" />
    <line x1="150" y1="130" x2="150" y2="170" stroke="#4682b4" stroke-width="2" />
    <line x1="130" y1="150" x2="170" y2="150" stroke="#4682b4" stroke-width="2" />

    <!-- Door -->
    <rect x="80" y="180" width="40" height="70" fill="#8b4513" stroke="#654321" stroke-width="2" />
    <circle cx="110" cy="215" r="3" fill="#ffd700" />

    <!-- Chimney -->
    <rect x="150" y="40" width="25" height="60" fill="#8b4513" stroke="#654321" stroke-width="2" />
  </g>

  <!-- Money elements -->
  <g>
    <!-- Floating money -->
    <circle cx="550" cy="200" r="30" fill="url(#moneyGradient)" stroke="#f59e0b" stroke-width="3" />
    <text x="550" y="210" font-family="Arial, sans-serif" font-size="24" font-weight="bold" fill="#92400e"
      text-anchor="middle">$</text>

    <circle cx="600" cy="280" r="25" fill="url(#moneyGradient)" stroke="#f59e0b" stroke-width="2" />
    <text x="600" y="288" font-family="Arial, sans-serif" font-size="20" font-weight="bold" fill="#92400e"
      text-anchor="middle">$</text>

    <circle cx="520" cy="320" r="20" fill="url(#moneyGradient)" stroke="#f59e0b" stroke-width="2" />
    <text x="520" y="327" font-family="Arial, sans-serif" font-size="16" font-weight="bold" fill="#92400e"
      text-anchor="middle">$</text>
  </g>

  <!-- Arrow from house to money -->
  <path d="M420 250 Q480 220 520 200" stroke="#fbbf24" stroke-width="4" fill="none" stroke-dasharray="10,5" />
  <path d="M515 195 L525 200 L515 205 Z" fill="#fbbf24" />

  <!-- Title -->
  <text x="400" y="80" font-family="Arial, sans-serif" font-size="36" font-weight="bold" fill="white"
    text-anchor="middle">Rental Property</text>
  <text x="400" y="120" font-family="Arial, sans-serif" font-size="18" fill="rgba(255,255,255,0.9)"
    text-anchor="middle">Real Estate Investment</text>

  <!-- Income indicator -->
  <rect x="100" y="480" width="600" height="60" rx="15" fill="rgba(255,255,255,0.15)" stroke="rgba(255,255,255,0.3)"
    stroke-width="2" />
  <text x="400" y="505" font-family="Arial, sans-serif" font-size="16" fill="white" text-anchor="middle">Monthly Rental
    Income</text>
  <text x="400" y="525" font-family="Arial, sans-serif" font-size="24" font-weight="bold" fill="#fbbf24"
    text-anchor="middle">$2,500 - $5,000</text>

  <!-- Property icon -->
  <g transform="translate(50, 200)">
    <rect x="0" y="40" width="80" height="60" fill="#a0522d" stroke="#8b4513" stroke-width="2" />
    <path d="M-10 40 L40 10 L90 40 Z" fill="#dc2626" />
    <rect x="15" y="55" width="15" height="15" fill="#87ceeb" />
    <rect x="50" y="55" width="15" height="15" fill="#87ceeb" />
    <rect x="25" y="75" width="15" height="25" fill="#8b4513" />
  </g>

  <!-- Key icon -->
  <g transform="translate(650, 380)">
    <circle cx="0" cy="0" r="15" fill="none" stroke="#fbbf24" stroke-width="4" />
    <line x1="15" y1="0" x2="35" y2="0" stroke="#fbbf24" stroke-width="4" />
    <line x1="25" y1="-5" x2="25" y2="0" stroke="#fbbf24" stroke-width="4" />
    <line x1="30" y1="-5" x2="30" y2="0" stroke="#fbbf24" stroke-width="4" />
  </g>
</svg>